<?xml version="1.0" standalone="no"?>
<!DOCTYPE svg PUBLIC "-//W3C//DTD SVG 1.1//EN" "http://www.w3.org/Graphics/SVG/1.1/DTD/svg11.dtd" >
<svg xmlns="http://www.w3.org/2000/svg">
<metadata>Generated by IcoMoon</metadata>
<defs>
<font id="icomoon" horiz-adv-x="1024">
<font-face units-per-em="1024" ascent="960" descent="-64" />
<missing-glyph horiz-adv-x="1024" />
<glyph unicode="&#x20;" horiz-adv-x="512" d="" />
<glyph unicode="&#xe900;" glyph-name="eye" horiz-adv-x="1654" d="M809.407 960c-309.295 0-589.788-167.605-796.761-439.855-16.885-22.296-16.885-53.46 0-75.773 206.972-272.553 487.465-440.174 796.761-440.174 309.312 0 589.793 167.621 796.765 439.855 16.897 22.312 16.897 53.46 0 75.773-206.972 272.57-487.453 440.174-796.765 440.174zM831.59 145.567c-205.304-12.796-374.86 154.825-361.941 358.514 10.593 167.941 148.018 304.058 317.574 314.55 205.321 12.796 374.86-154.809 361.957-358.514-10.932-167.605-148.358-303.722-317.591-314.55zM821.341 301.048c-110.618-6.884-202.009 83.317-194.732 192.861 5.626 90.52 79.813 163.665 171.203 169.577 110.618 6.884 202.009-83.317 194.732-192.861-5.965-90.861-80.136-164.001-171.203-169.577z" />
<glyph unicode="&#xe901;" glyph-name="lock" horiz-adv-x="819" d="M217.975 673.28c0 100.011 78.848 181.385 175.855 181.385 96.939 0 175.787-81.374 175.787-181.316v-91.204h-351.642v91.204zM692.838 582.144h-21.094v91.204c0 158.037-124.723 286.652-277.982 286.652-153.19 0-277.914-128.614-277.914-286.72v-91.136h-21.094c-52.361 0-94.754-43.759-94.754-97.758v-450.56c0-54.135 42.394-97.826 94.754-97.826h598.016c52.361 0 94.822 43.759 94.822 97.758v450.628c0 53.931-42.462 97.758-94.754 97.758z" />
<glyph unicode="&#xe902;" glyph-name="close2" d="M1024 841.432l-107.789 118.568-409.6-409.6-398.821 409.6-107.789-118.568 398.821-398.821-398.821-398.821 107.789-118.568 398.821 398.821 409.6-398.821 107.789 118.568-398.821 398.821z" />
<glyph unicode="&#xe903;" glyph-name="spin" d="M384 832c0 70.692 57.308 128 128 128s128-57.308 128-128c0-70.692-57.308-128-128-128s-128 57.308-128 128zM655.53 719.53c0 70.692 57.308 128 128 128s128-57.308 128-128c0-70.692-57.308-128-128-128s-128 57.308-128 128zM832 448c0 35.346 28.654 64 64 64s64-28.654 64-64c0-35.346-28.654-64-64-64s-64 28.654-64 64zM719.53 176.47c0 35.346 28.654 64 64 64s64-28.654 64-64c0-35.346-28.654-64-64-64s-64 28.654-64 64zM448.002 64c0 0 0 0 0 0 0 35.346 28.654 64 64 64s64-28.654 64-64c0 0 0 0 0 0 0-35.346-28.654-64-64-64s-64 28.654-64 64zM176.472 176.47c0 0 0 0 0 0 0 35.346 28.654 64 64 64s64-28.654 64-64c0 0 0 0 0 0 0-35.346-28.654-64-64-64s-64 28.654-64 64zM144.472 719.53c0 0 0 0 0 0 0 53.020 42.98 96 96 96s96-42.98 96-96c0 0 0 0 0 0 0-53.018-42.98-96-96-96s-96 42.98-96 96zM56 448c0 39.764 32.234 72 72 72s72-32.236 72-72c0-39.764-32.236-72-72-72s-72 32.236-72 72z" />
<glyph unicode="&#xe904;" glyph-name="cross_circle" d="M870.4 810.667c-98.133 98.133-226.133 149.333-362.667 149.333s-264.533-51.2-362.667-149.333-149.333-226.133-149.333-362.667c0-136.533 51.2-264.533 149.333-362.667s226.133-149.333 362.667-149.333c136.533 0 264.533 51.2 362.667 149.333s149.333 226.133 149.333 362.667c4.267 140.8-51.2 268.8-149.333 362.667zM840.533 119.467c-89.6-89.6-204.8-136.533-332.8-136.533s-243.2 46.933-332.8 136.533c-89.6 89.6-136.533 204.8-136.533 332.8s46.933 243.2 136.533 332.8 204.8 136.533 332.8 136.533 243.2-46.933 332.8-136.533c89.6-89.6 136.533-204.8 136.533-332.8s-46.933-247.467-136.533-332.8zM661.333 631.467l-149.333-149.333-153.6 149.333-29.867-29.867 153.6-153.6-153.6-149.333 29.867-29.867 153.6 149.333 149.333-149.333 29.867 29.867-149.333 149.333 149.333 153.6z" />
<glyph unicode="&#xe905;" glyph-name="arrow" horiz-adv-x="1265" d="M1204.706 417.882h-1194.386v60.235h1194.386zM731.645 878.468l42.593 42.593 473.222-473.222-480.229-473.060-42.271 42.912 436.993 430.47z" />
<glyph unicode="&#xe906;" glyph-name="calendar" d="M804.571 908.8v58.514h-73.143v-58.514h-453.486v58.514h-73.143v-58.514h-168.229v-928.914h936.229v928.914h-168.229zM204.8 835.657v-58.514h73.143v58.514h453.486v-58.514h73.143v58.514h95.086v-197.486h-789.943v197.486h95.086zM109.714 45.714v519.314h789.943v-519.314h-789.943z" />
<glyph unicode="&#xe907;" glyph-name="close" horiz-adv-x="1051" d="M577.289 458.309l446.711 446.711-48.107 48.107-446.711-446.711-446.711 453.584-54.98-48.107 453.584-453.584-481.074-481.074 48.107-48.107 481.074 481.074 474.201-474.201 48.107 48.107z" />
<glyph unicode="&#xe908;" glyph-name="hamburger" d="M0 115.2h1024v-51.2h-1024v51.2zM0 832h1024v-51.2h-1024v51.2zM0 473.6h1024v-51.2h-1024v51.2z" />
<glyph unicode="&#xe909;" glyph-name="pause" d="M512 960c-283.106 0-512-228.894-512-512s228.894-512 512-512c283.106 0 512 228.894 512 512s-228.894 512-512 512zM512-3.765c-246.965 0-451.765 204.8-451.765 451.765s204.8 451.765 451.765 451.765 451.765-204.8 451.765-451.765c0-246.965-204.8-451.765-451.765-451.765zM361.412 628.706h60.235v-361.412h-60.235v361.412zM602.353 628.706h60.235v-361.412h-60.235v361.412z" />
<glyph unicode="&#xe90a;" glyph-name="play" d="M512 960c-283.106 0-512-228.894-512-512s228.894-512 512-512c283.106 0 512 228.894 512 512s-228.894 512-512 512zM512-3.765c-246.965 0-451.765 204.8-451.765 451.765s204.8 451.765 451.765 451.765 451.765-204.8 451.765-451.765c0-246.965-204.8-451.765-451.765-451.765zM391.529 267.294l331.294 180.706-331.294 180.706z" />
<glyph unicode="&#xe90b;" glyph-name="search" d="M1024-5.065l-243.108 243.108c66.302 73.669 103.137 176.806 103.137 287.309 0 243.108-198.906 442.014-442.014 442.014s-442.014-198.906-442.014-442.014c0-243.108 198.906-442.014 442.014-442.014 110.504 0 206.273 36.835 287.309 103.137l243.108-243.108 51.568 51.568zM73.669 517.986c0 206.273 162.072 368.345 368.345 368.345s368.345-162.072 368.345-368.345c0-88.403-29.468-169.439-81.036-228.374l-51.568-51.568c-66.302-51.568-139.971-81.036-228.374-81.036-213.64-7.367-375.712 162.072-375.712 360.978z" />
<glyph unicode="&#xe90c;" glyph-name="time" d="M512 960c-277.943 0-512-226.743-512-512s226.743-512 512-512 512 226.743 512 512-226.743 512-512 512zM512 9.143c-241.371 0-438.857 197.486-438.857 438.857s197.486 438.857 438.857 438.857c241.371 0 438.857-197.486 438.857-438.857s-197.486-438.857-438.857-438.857zM548.571 711.314h-73.143v-277.943l168.229-168.229 51.2 51.2-146.286 146.286z" />
<glyph unicode="&#xe90d;" glyph-name="dropdown" horiz-adv-x="1707" d="M853.333 227.346l-622.327 622.327-120.68-120.68 743.006-743.006 743.006 743.006-120.68 120.68z" />
<glyph unicode="&#xe90e;" glyph-name="filter" horiz-adv-x="1082" d="M673.052-64l-264.413 129.803v423.061l-408.638 475.944h1081.69l-408.638-475.944v-552.864zM456.714 94.648l168.263-81.728v490.366l350.948 408.638h-874.967l350.948-408.638v-408.638z" />
<glyph unicode="&#xe90f;" glyph-name="add" d="M535.925 471.925v488.075h-47.85v-488.075h-488.075v-47.85h488.075v-488.075h47.85v488.075h488.075v47.85z" />
<glyph unicode="&#xe910;" glyph-name="checked" horiz-adv-x="1434" d="M174.808 617.453l-144.815-144.815 509.773-509.773 822.328 822.328-144.815 144.815-677.513-677.513z" />
<glyph unicode="&#xe911;" glyph-name="table-view" horiz-adv-x="1182" d="M0 960h1181.538v-236.308h-1181.538v236.308zM0 566.154h1181.538v-236.308h-1181.538v236.308zM0 172.308h1181.538v-236.308h-1181.538v236.308z" />
<glyph unicode="&#xe912;" glyph-name="box-mode" horiz-adv-x="1182" d="M0 408.615h551.385v-472.615h-551.385v472.615zM630.154 408.615h551.385v-472.615h-551.385v472.615zM0 960h551.385v-472.615h-551.385v472.615zM630.154 960h551.385v-472.615h-551.385v472.615z" />
<glyph unicode="&#xe913;" glyph-name="trash" horiz-adv-x="788" d="M78.769-64h630.154v630.154h-630.154zM0 644.923h787.692v157.538h-787.692zM196.923 684.308h393.846v236.308h-393.846v-236.308zM275.692 763.077v78.769h236.308v-78.769h-236.308z" />
<glyph unicode="&#xe914;" glyph-name="copylink" d="M943.114 512.952l-195.407-185.152c-107.856-102.297-282.817-102.297-390.673 0-17 16.043-30.28 34.136-41.957 52.806l90.794 86.065c4.311 4.125 9.643 6.483 14.734 9.271 6.27-20.339 17.232-39.581 34.095-55.565 53.866-51.079 141.519-51.018 195.342 0l195.334 185.163c53.896 51.079 53.896 134.137 0 185.186-53.826 51.056-141.446 51.056-195.334 0l-69.474-65.915c-56.354 20.81-117.099 26.403-176.213 18.191l148.011 140.3c107.921 102.266 282.828 102.266 390.749 0 107.848-102.266 107.848-268.079 0-370.348zM443.458 171.174l-69.505-65.916c-53.856-51.019-141.513-51.019-195.369 0-53.864 51.080-53.864 134.137 0 185.228l195.369 185.156c53.896 51.091 141.478 51.091 195.345 0 16.82-15.954 27.782-35.193 34.125-55.495 5.134 2.808 10.393 5.115 14.704 9.202l90.795 86.033c-11.604 18.733-24.957 36.764-41.958 52.84-107.858 102.268-282.821 102.268-390.711 0l-195.337-185.158c-107.89-102.299-107.89-268.085 0-370.383 107.882-102.24 282.821-102.24 390.714 0l148.056 140.341c-59.158-8.253-119.907-2.627-176.229 18.153z" />
<glyph unicode="&#xe915;" glyph-name="edit" d="M641.789 748.097l-466.458-466.458c-6.091-6.091-4.771-17.237 2.956-24.963l167.466-167.466c7.675-7.675 18.873-9.047 24.963-2.956l466.458 466.458c6.091 6.091 4.719 17.288-2.956 24.963l-167.466 167.466c-7.727 7.727-18.873 9.047-24.963 2.956zM908.531 624.067l52.046 52.046c39.253 39.253 42.373 108.823 0.625 163.198-53.18 69.213-143.965 84.234-191.775 36.425l-56.283-56.283c-6.355-6.355-5.118-17.893 2.763-25.775l166.848-166.848c7.881-7.881 19.42-9.118 25.775-2.763zM105.661 210.649l-50.191-204.311c-4.624-18.864 21.101-44.589 39.966-39.966l204.311 50.191c7.77 2.487 7.265 13.696-1.119 22.080l-170.887 170.887c-8.384 8.384-19.65 8.946-22.080 1.119z" />
<glyph unicode="&#xe916;" glyph-name="arrow-left" horiz-adv-x="490" d="M477.699 900.556l-33.038 29.844-429.717-475.7 403.536-476.105 33.963 28.787-378.346 446.385z" />
<glyph unicode="&#xe917;" glyph-name="arrow-right" horiz-adv-x="534" d="M53.258 7.381l33.963-28.787 403.536 476.105-429.717 475.7-33.038-29.844 403.601-446.79z" />
<glyph unicode="&#xe918;" glyph-name="dots" horiz-adv-x="5120" d="M1024 448c0-282.77-229.23-512-512-512s-512 229.23-512 512c0 282.77 229.23 512 512 512s512-229.23 512-512zM3072 448c0-282.77-229.23-512-512-512s-512 229.23-512 512c0 282.77 229.23 512 512 512s512-229.23 512-512zM5120 448c0-282.77-229.23-512-512-512s-512 229.23-512 512c0 282.77 229.23 512 512 512s512-229.23 512-512z" />
<glyph unicode="&#xe919;" glyph-name="undo-circle" d="M1024 448c0-282.77-229.23-512-512-512s-512 229.23-512 512c0 282.77 229.23 512 512 512s512-229.23 512-512zM815.725 579.494l-55.6-81.609c-28.983 122.504-137.946 213.872-267.642 213.872-151.781 0-275.271-125.084-275.271-278.846 0-153.742 123.49-278.836 275.271-278.836v60.932c-118.618 0-215.12 97.756-215.12 217.904 0 120.158 96.502 217.914 215.12 217.914 100.442 0 184.784-70.204 208.343-164.649l-86.988 60.81-34.166-50.147 171.26-119.732 114.297 167.777-49.504 34.61z" />
<glyph unicode="&#xe91a;" glyph-name="undo" horiz-adv-x="1190" d="M1099.294 719.059l-105.412-150.588c-52.706 225.882-256 391.529-489.412 391.529-278.588 0-504.471-233.412-504.471-512 0-286.118 225.882-512 504.471-512v112.941c-218.353 0-399.059 180.706-399.059 399.059s180.706 399.059 399.059 399.059c188.235 0 338.824-128 384-301.176l-158.118 112.941-60.235-90.353 316.235-218.353 210.824 308.706-97.882 60.235z" />
<glyph unicode="&#xe91b;" glyph-name="star-empty" horiz-adv-x="1061" d="M530.286 156.050l256.951-122.295-35.109 286.098 194.414 210.981-279.333 54.601-136.923 251.977-136.96-251.977-279.333-54.601 194.414-210.981-35.109-286.098 256.987 122.295zM368.567 640.219l-20.114-14.775 6.583 12.105 13.531 2.67zM202.24-64.878l44.8 364.983-247.040 268.069 355.072 69.376 175.177 322.45 175.214-322.45 355.109-69.376-247.040-268.069 44.8-364.983-328.046 156.123-328.009-156.123z" />
<glyph unicode="&#xe91c;" glyph-name="roles" horiz-adv-x="1518" d="M1472.185 137.757c-82.154 66.606-171.213 124.103-265.6 171.482-2.884 1.36-4.72 4.279-4.705 7.489v89.409c12.825 21.58 21.567 45.362 25.801 70.152 9.865 0.764 22.766 15.284 36.729 64.344 19.123 68.012-1.214 78.099-18.364 76.418 3.126 9.109 5.509 18.463 7.133 27.969 29.14 176.067-56.914 182.18-56.914 182.18-12.597 20.648-30.536 37.46-51.906 48.602-32.13 18.707-69.344 26.639-106.24 22.62-14.418-0.688-28.67-3.424-42.344-8.1-16.422-5.854-31.948-13.969-46.139-24.148-17.575-11.233-33.693-24.637-47.96-39.89-25.346-25.172-43.316-56.901-51.906-91.701-6.769-29.467-6.769-60.095 0-89.562 1.7-9.292 4.143-18.447 7.285-27.358-17.15 1.681-37.488-8.406-18.364-76.418 13.963-49.672 27.015-63.58 36.729-64.344 4.234-25.019 12.976-49.060 25.801-70.916v-88.645c0.015-3.21-1.821-6.129-4.705-7.489l-13.204-6.572c-4.098-2.14-5.691-7.214-3.567-11.34 0.637-1.207 1.548-2.247 2.656-3.026 34.907-23.842 71.484-50.741 107.454-80.544 38.52-31.713 60.815-79.2 60.709-129.299v-139.998h454.1v128.382c0.137 27.174-11.838 52.988-32.631 70.304h0.152zM981.812-60.93h-981.809v139.386c-0.212 29.528 12.779 57.589 35.363 76.418 79.179 64.13 164.308 120.435 254.217 168.119 5.919-13.602 62.075-143.971 98.044-198.687 0.804-1.483 2.656-2.017 4.128-1.192 0.501 0.275 0.911 0.688 1.184 1.192 7.285 22.161 35.363 98.579 78.162 93.23 1.563-0.29 3.066 0.734 3.369 2.308 0.182 1.024-0.167 2.063-0.941 2.736-32.327 25.829-114.284 92.771-145.397 129.91v89.562c-13.826 23.552-23.297 49.458-27.926 76.418-10.624 0.917-24.739 15.284-39.916 69.846-19.427 69.235-1.214 82.99 16.543 82.99-9.41 40.501-33.238 181.11 70.725 244.537-12.901 10.775-20.307 26.823-20.186 43.711 0 0 118.533-13.602 175.903-1.528s119.141-33.471 128.854-76.418c0 0 116.409 0 71.181-209.232 18.213 0.764 37.943-11.768 17.909-82.837-15.177-53.798-29.14-68.929-39.916-69.846-4.629-26.96-14.1-52.866-27.926-76.418v-89.103c-31.265-37.139-113.070-104.081-145.397-129.91-1.199-1.055-1.32-2.889-0.288-4.096 0.683-0.779 1.715-1.146 2.717-0.948 42.8 5.349 71.029-71.069 78.162-93.23 0.804-1.483 2.656-2.017 4.128-1.192 0.501 0.275 0.911 0.688 1.184 1.192 35.97 55.021 92.125 185.39 98.044 198.687 89.909-47.685 175.038-103.989 254.217-168.119 22.614-18.814 35.59-46.89 35.363-76.418l0.304-141.067z" />
<glyph unicode="&#xe91d;" glyph-name="dark-pause" d="M512 960c-285.257 0-512-226.743-512-512s226.743-512 512-512c285.257 0 512 226.743 512 512s-226.743 512-512 512zM431.543 272.457h-73.143v358.4h73.143v-358.4zM665.6 272.457h-73.143v358.4h73.143v-358.4z" />
<glyph unicode="&#xe91e;" glyph-name="split" horiz-adv-x="887" d="M589.619 960v-144.725h-589.619v-180.224h589.619v-144.725l244.736 234.837zM0 179.917l244.736-234.837v144.794h589.619v180.224h-589.619v144.725z" />
<glyph unicode="&#xe91f;" glyph-name="combined-shape" d="M299.294 146.507c58.999-42.183 132.606-67.449 212.114-67.449 0.208 0 0.416 0 0.624 0.001 203.729 0 368.909 165.18 368.909 368.941 0 79.209-24.968 152.591-67.448 212.706l-514.199-514.199zM204.77 243.637l511.578 511.608c-57.248 38.65-127.798 61.697-203.731 61.697-0.217 0-0.434 0-0.65-0.001-203.728 0-368.908-165.18-368.908-368.941 0-75.58 22.739-145.845 61.711-204.348zM512-56.471c-278.618 0-504.471 225.852-504.471 504.471s225.852 504.471 504.471 504.471c278.618 0 504.471-225.852 504.471-504.471s-225.852-504.471-504.471-504.471z" />
<glyph unicode="&#xe920;" glyph-name="question" d="M512 960c-279.893 0-512-232.107-512-512s232.107-512 512-512 512 232.107 512 512-232.107 512-512 512zM559.787 215.893h-102.4v95.573h102.4v-95.573zM662.187 509.44c-6.827-13.653-13.653-27.307-20.48-34.133s-13.653-20.48-27.307-27.307c-6.827-6.827-20.48-13.653-27.307-20.48s-13.653-13.653-20.48-20.48c-6.827-6.827-13.653-20.48-13.653-34.133v-27.307h-88.747v27.307c0 20.48 6.827 34.133 13.653 47.787s13.653 20.48 20.48 34.133c6.827 6.827 13.653 13.653 27.307 20.48 6.827 6.827 13.653 13.653 20.48 20.48s13.653 13.653 20.48 20.48c6.827 6.827 6.827 20.48 6.827 27.307 0 20.48-6.827 34.133-13.653 40.96s-20.48 13.653-40.96 13.653c-13.653 0-20.48 0-27.307-6.827s-13.653-13.653-20.48-20.48c-6.827-6.827-6.827-13.653-13.653-27.307 0-6.827-6.827-20.48-6.827-34.133h-95.573c0 20.48 6.827 40.96 13.653 61.44s20.48 34.133 34.133 47.787c13.653 13.653 27.307 27.307 47.787 34.133s40.96 13.653 61.44 13.653c27.307 0 54.613-6.827 75.093-13.653s34.133-20.48 47.787-34.133c13.653-13.653 20.48-27.307 27.307-40.96s6.827-27.307 6.827-40.96c0 0 0-20.48-6.827-27.307z" />
<glyph unicode="&#xe921;" glyph-name="add-circle" d="M512 960c-281.6 0-512-230.4-512-512s230.4-512 512-512 512 230.4 512 512c0 281.6-230.4 512-512 512zM768 426.667h-234.667v-234.667h-42.667v234.667h-234.667v42.667h234.667v234.667h42.667v-234.667h234.667v-42.667z" />
<glyph unicode="&#xe922;" glyph-name="check-circle" d="M512 960c-281.6 0-512-230.4-512-512s230.4-512 512-512 512 230.4 512 512c0 281.6-230.4 512-512 512zM469.333 256l-179.2 196.267 64 59.733 119.467-128 247.467 264.533 64-59.733-315.733-332.8z" />
<glyph unicode="&#xe923;" glyph-name="cross-circle" d="M512 960c-281.6 0-512-230.4-512-512s230.4-512 512-512 512 230.4 512 512c0 281.6-230.4 512-512 512zM729.6 281.6l-44.8-44.8-166.4 166.4-166.4-166.4-44.8 44.8 166.4 166.4-166.4 166.4 44.8 44.8 166.4-166.4 166.4 166.4 44.8-44.8-166.4-166.4 166.4-166.4z" />
<glyph unicode="&#xe924;" glyph-name="star-filled" horiz-adv-x="1059" d="M1064.497 566.599l-358.689 69.424-173.559 323.977-173.559-323.977-358.689-69.424 248.768-266.124-46.282-370.26 329.763 156.203 329.763-156.203-46.282 370.26z" />
<glyph unicode="&#xe925;" glyph-name="stat" horiz-adv-x="1485" d="M1319.987 865.911h-1157.888c-12.783 0-23.159-10.359-23.159-23.142v-694.733c0-12.8 10.377-23.142 23.159-23.142h1157.888c12.8 0 23.142 10.359 23.142 23.142v694.733c0 12.8-10.359 23.142-23.142 23.142zM1296.811 171.179h-162.082v370.534c0 12.791-10.369 23.159-23.159 23.159s-23.159-10.369-23.159-23.159v-370.517h-138.957v115.78c0.005 0.187 0.009 0.408 0.009 0.629 0 12.791-10.369 23.159-23.159 23.159s-23.159-10.369-23.159-23.159c0-0.221 0.003-0.441 0.009-0.661l-0.001-115.765h-138.957v277.897c0 12.791-10.369 23.159-23.159 23.159s-23.159-10.369-23.159-23.159v-277.897h-138.923v92.638c0 12.795-10.373 23.168-23.168 23.168s-23.168-10.373-23.168-23.168v-92.638h-138.923c0 6.144-2.475 12.083-6.775 16.401-4.208 4.177-10.001 6.763-16.399 6.775-6.112 0-12.069-2.458-16.386-6.775-4.173-4.204-6.758-9.991-6.775-16.381l-162.099-0.003v648.397h1111.552v-648.414zM1458.927 78.575h-23.159v773.547c0 58.692-47.872 106.428-106.718 106.428h-1176.064c-58.829 0-106.667-47.735-106.667-106.428v-773.547h-23.177c-12.766 0-23.142-10.377-23.142-23.177v-23.142c0.058-51.139 41.499-92.58 92.632-92.638h1296.816c51.139 0.058 92.58 41.499 92.638 92.632v23.148c0 12.8-10.377 23.177-23.159 23.177zM92.638 852.122c0.107 33.22 27.061 60.109 60.296 60.109 0.018 0 0.036 0 0.054 0h1176.061c33.314 0 60.416-26.965 60.416-60.109v-773.547h-1296.845v773.547zM1389.449-14.063h-1296.811c-25.569 0.029-46.29 20.749-46.319 46.316l602.095 0.003c0-12.8 10.377-23.159 23.159-23.159h138.94c12.8 0 23.159 10.359 23.159 23.159h602.112c-0.029-25.575-20.759-46.299-46.334-46.319zM370.517 240.674c38.37 0.065 69.449 31.185 69.449 69.564 0 2.984-0.188 5.924-0.552 8.808l68.183 33.739c12.44-12.058 29.424-19.49 48.143-19.49 0.019 0 0.037 0 0.056 0 38.34 0.049 69.41 31.118 69.458 69.457 0 10.722-2.441 20.894-6.775 29.957l92.638 92.638c8.721-4.275 18.98-6.776 29.822-6.776 0.040 0 0.079 0 0.119 0 12.35 0 23.938 3.243 34.008 8.926l86.716-75.878c-3.174-7.953-4.949-16.606-4.949-25.685 0.049-38.343 31.118-69.413 69.457-69.461 38.355 0.039 69.434 31.112 69.483 69.457 0 14.597-4.523 28.131-12.237 39.326l108.237 148.821c6.281-1.877 12.919-2.901 19.797-2.901 38.349 0.049 69.423 31.128 69.461 69.475-0.049 38.347-31.118 69.417-69.457 69.465-38.348-0.049-69.417-31.118-69.466-69.457 0-14.58 4.523-28.13 12.22-39.326l-108.237-148.821c-5.922 1.83-12.731 2.883-19.785 2.883-12.505 0-24.236-3.311-34.366-9.104l-86.359 76.057c3.174 7.953 4.949 16.623 4.949 25.685-0.049 38.349-31.128 69.423-69.475 69.461-38.361-0.029-69.451-31.106-69.499-69.457 0-10.705 2.458-20.877 6.81-29.94l-92.655-92.638c-8.723 4.286-18.986 6.793-29.834 6.793-0.029 0-0.059 0-0.088 0-38.373-0.054-69.464-31.178-69.464-69.564 0-2.99 0.189-5.935 0.555-8.826l-68.183-33.739c-12.44 12.058-29.424 19.49-48.143 19.49-0.013 0-0.025 0-0.038 0-38.341-0.049-69.411-31.118-69.459-69.457 0.039-38.355 31.112-69.434 69.457-69.483zM1111.552 703.829c12.8 0 23.177-10.411 23.177-23.177 0-12.749-10.394-23.142-23.159-23.142-12.412 0.491-22.287 10.672-22.287 23.159s9.876 22.668 22.243 23.158zM926.327 449.075c12.412-0.491 22.287-10.672 22.287-23.159s-9.876-22.668-22.243-23.158c-12.456 0.49-22.332 10.671-22.332 23.158s9.876 22.668 22.243 23.158zM741.035 611.191c12.412-0.491 22.287-10.672 22.287-23.159s-9.876-22.668-22.243-23.158c-12.835 0.008-23.202 10.369-23.221 23.156 0 12.768 10.411 23.161 23.177 23.161zM555.793 425.933c12.8 0 23.177-10.376 23.177-23.177s-10.376-23.177-23.177-23.177c-12.8 0-23.177 10.376-23.177 23.177s10.394 23.177 23.177 23.177zM370.517 333.295c12.783 0 23.159-10.394 23.159-23.159s-10.377-23.159-23.159-23.159c-12.412 0.491-22.287 10.672-22.287 23.159s9.876 22.668 22.243 23.158z" />
<glyph unicode="&#xe926;" glyph-name="archive" d="M856.503 960h-690.322c-12.883-0.098-23.776-8.508-27.589-20.127l-138.591-418.73v-555.886c0-16.091 13.166-29.257 29.257-29.257h965.486c16.158 0 29.257 13.099 29.257 29.257v555.886l-139.703 418.523c-3.887 11.872-14.852 20.302-27.791 20.334zM651.703 175.323l-123.465-81.189c-4.562-3.082-10.185-4.92-16.238-4.92s-11.675 1.838-16.342 4.986l-121.606 81.269c-7.606 5.357-12.515 14.102-12.515 23.993 0 16.032 12.895 29.053 28.879 29.255h48.44v190.171c0 16.091 13.166 29.257 29.257 29.257h87.771c16.091 0 29.257-13.166 29.257-29.257v-190.171h49.591c16.031-0.166 28.963-13.201 28.963-29.256 0-9.981-4.998-18.795-12.628-24.075l0.634-0.064zM922.331 579.657h-821.248c-0.011 0-0.025 0-0.038 0-8.079 0-14.629 6.549-14.629 14.629 0 1.675 0.282 3.285 0.8 4.784l97.103 292.469c2.007 5.843 7.455 9.967 13.866 9.967 0.268 0 0.535-0.007 0.799-0.021l626.212 0.002c0.213 0.011 0.463 0.017 0.715 0.017 6.464 0 11.95-4.193 13.884-10.008l97.163-292.675c0.461-1.359 0.727-2.925 0.727-4.553 0-8.079-6.549-14.629-14.629-14.629-0.256 0-0.51 0.007-0.762 0.020z" />
<glyph unicode="&#xe927;" glyph-name="arrow-circle-left" d="M512-48c-273.933 0-496 222.067-496 496s222.067 496 496 496c273.933 0 496-222.067 496-496s-222.067-496-496-496zM512-16c256.26 0 464 207.74 464 464s-207.74 464-464 464c-256.26 0-464-207.74-464-464s207.74-464 464-464zM619.314 628.686l-22.627 22.627-202.959-202.959 190.765-203.302 23.335 21.896-169.555 180.698z" />
<glyph unicode="&#xe928;" glyph-name="arrow-circle-right" d="M512-48c273.933 0 496 222.067 496 496s-222.067 496-496 496c-273.933 0-496-222.067-496-496s222.067-496 496-496zM512-16c-256.26 0-464 207.74-464 464s207.74 464 464 464c256.26 0 464-207.74 464-464s-207.74-464-464-464zM404.686 628.686l22.627 22.627 202.959-202.959-190.765-203.302-23.335 21.896 169.555 180.698z" />
<glyph unicode="&#xe929;" glyph-name="logo" horiz-adv-x="3745" d="M0 843.030c0.083 64.526 52.336 116.82 116.839 116.97h784.984c0.017 0 0.038 0 0.059 0 64.504 0 116.795-52.291 116.795-116.795 0-0.062 0-0.123 0-0.185v-790.050c-0.083-64.526-52.336-116.82-116.839-116.97h-784.984c-0.017 0-0.038 0-0.059 0-64.504 0-116.795 52.291-116.795 116.795 0 0.062 0 0.123 0 0.185v790.050zM488.536 155.077c13.107 0 26.419 0.614 40.667 1.989 48.333 4.564 92.57 18.139 131.218 40.082 18.52 10.299 36.279 23.172 54.535 39.556 45.056 41.399 73.435 92.014 84.436 150.411 1.105 5.074 2.256 11.994 3.139 18.997 2.010 15.409 2.946 29.628 2.946 43.584 0 86.777-30.486 158.398-90.639 212.904-59.158 53.775-135.285 81.042-226.304 81.042h-182.886c-18.549 0-33.061-14.482-33.061-32.973v-522.386c0-18.315 14.833-33.207 33.061-33.207h182.886zM1602.297 416.051c0-42.511-11.732-76.683-34.875-101.639-23.025-24.752-55.325-37.332-96.051-37.332h-41.955v277.884h41.955c41.311 0 72.763-12.2 96.051-37.332 23.142-24.869 34.875-59.070 34.875-101.581zM1660.167 591.448c-49.093 44.588-112.64 67.233-188.796 67.233h-163.869c-4.661-0.033-8.426-3.819-8.426-8.484 0 0 0 0 0 0v-468.29c0-4.681 3.774-8.485 8.426-8.485h163.869c76.186 0 139.703 22.762 188.796 67.584 49.445 45.056 74.489 104.068 74.489 175.397 0 71.3-25.073 130.194-74.489 175.045zM2050.107 368.011c0-27.209-7.168-47.455-21.972-61.937-14.892-14.57-31.422-21.65-50.527-21.65-19.134 0-35.694 7.022-50.556 21.358-14.57 14.043-21.943 34.728-21.943 61.586 0 26.829 7.373 47.689 21.972 61.937 14.863 14.541 31.393 21.65 50.527 21.65 19.105 0 35.694-7.022 50.556-21.358 14.775-14.248 21.943-34.377 21.943-61.586zM2172.050 562.571h-113.518c-4.661-0.033-8.426-3.819-8.426-8.484 0 0 0 0 0 0v-25.717c-25.512 25.366-59.099 38.21-100.059 38.21-49.357 0-91.692-18.988-125.981-56.408-34.026-37.303-51.288-85.343-51.288-142.775 0-57.607 17.262-105.531 51.346-142.512 34.172-37.244 76.010-56.086 124.314-56.086 40.55 0 74.664 14.541 101.669 43.33v-30.223c0-4.681 3.803-8.485 8.426-8.485h113.518c4.661 0.033 8.426 3.819 8.426 8.484 0 0 0 0 0 0v372.209c0 0 0 0 0 0 0 4.665-3.765 8.451-8.423 8.484zM2468.63 566.579c-38.971 0-71.739-17.671-97.719-52.721v40.258c0 0 0 0 0 0 0 4.676-3.782 8.468-8.454 8.485h-113.461c-4.681 0-8.426-3.803-8.426-8.485v-372.18c0-4.681 3.745-8.485 8.426-8.485h113.459c4.661 0.033 8.426 3.819 8.426 8.484 0 0 0 0 0 0v176.069c0 28.613 5.705 48.538 16.969 59.216 11.381 10.884 29.169 16.384 52.926 16.384h27.853c4.661 0.033 8.426 3.819 8.426 8.484 0 0 0 0 0 0v116.034c0 0 0 0 0 0 0 4.665-3.765 8.451-8.423 8.484zM3110.239 559.177c-1.564 2.070-4.021 3.394-6.788 3.394h-106.789c-4.024-0.004-7.389-2.818-8.24-6.585l-49.455-223.991-48.859 223.905c-0.848 3.826-4.202 6.649-8.219 6.671h-120.161c-4.012-0.024-7.357-2.848-8.182-6.615l-48.899-223.961-49.445 223.934c-0.869 3.808-4.214 6.612-8.218 6.641h-113.521c-2.751-0.017-5.187-1.35-6.713-3.401-1.068-1.406-1.701-3.158-1.701-5.058 0-0.876 0.135-1.72 0.384-2.514l110.781-372.092c1.068-3.514 4.279-6.027 8.077-6.027 0.009 0 0.019 0 0.028 0h122.089c3.953 0.013 7.266 2.736 8.18 6.408l44.191 185.548 43.593-185.461c0.878-3.803 4.301-6.495 8.192-6.495h122.119c3.791 0.021 6.991 2.525 8.059 5.967l110.813 372.211c0.226 0.728 0.356 1.565 0.356 2.432 0 1.905-0.628 3.664-1.688 5.080zM3228.058 589.868c18.783 0 34.904 6.641 47.923 19.719 12.99 13.049 19.602 29.374 19.602 48.421s-6.612 35.372-19.602 48.479c-11.896 12.143-28.462 19.671-46.787 19.671-0.399 0-0.798-0.004-1.196-0.011-18.665 0.001-34.815-6.611-47.834-19.66-13.019-13.078-19.602-29.403-19.602-48.479s6.612-35.401 19.602-48.421c12.99-13.078 29.111-19.719 47.894-19.719zM3285.138 562.571h-113.518c-4.648-0.050-8.397-3.829-8.397-8.484 0 0 0 0 0 0v-372.151c0-4.681 3.774-8.485 8.426-8.485h113.488c4.661 0.033 8.426 3.819 8.426 8.484 0 0 0 0 0 0v372.151c0 0 0 0 0 0 0 4.665-3.765 8.451-8.423 8.484zM3697.079 521.231c-27.824 30.106-64.658 45.349-109.334 45.349-44.061 0-78.848-13.926-103.746-41.487v29.023c0 0 0 0 0 0 0 4.665-3.765 8.451-8.423 8.484h-113.462c-4.661-0.033-8.426-3.819-8.426-8.484 0 0 0 0 0 0v-372.151c0-4.681 3.803-8.485 8.426-8.485h113.459c4.661 0.033 8.426 3.819 8.426 8.484 0 0 0 0 0 0v202.079c0 21.563 5.559 38.327 16.56 49.796 11.088 11.498 26.156 17.086 46.051 17.086s34.933-5.559 45.963-17.086c11.118-11.586 16.56-27.853 16.56-49.796v-202.108c0-4.681 3.803-8.485 8.426-8.485h112.786c4.673 0.017 8.455 3.809 8.455 8.485 0 0 0 0 0 0v217.498c0 50.907-14.043 91.867-41.721 121.827z" />
<glyph unicode="&#xe92a;" glyph-name="archive-icon" horiz-adv-x="1084" d="M143.059 606.118v-579.765c0-20.781 16.866-37.647 37.647-37.647h722.824c20.781 0 37.647 16.866 37.647 37.647v579.765h-798.118zM986.353 651.294v-624.941c0-45.742-37.081-82.824-82.824-82.824h-722.824c-45.742 0-82.824 37.081-82.824 82.824v624.941h888.471zM1031.529 869.647c0 20.781-16.866 37.647-37.647 37.647h-903.529c-20.781 0-37.647-16.866-37.647-37.647v-218.353h978.824v218.353zM90.353 952.471h903.529c45.742 0 82.824-37.081 82.824-82.824v-263.529h-1069.176v263.529c0 45.742 37.081 82.824 82.824 82.824zM361.412 816.941c-20.792 0-37.647-16.855-37.647-37.647s16.855-37.647 37.647-37.647h391.529c20.792 0 37.647 16.855 37.647 37.647s-16.855 37.647-37.647 37.647h-391.529zM361.412 862.118h391.529c45.742 0 82.824-37.081 82.824-82.824s-37.081-82.824-82.824-82.824h-391.529c-45.742 0-82.824 37.081-82.824 82.824s37.081 82.824 82.824 82.824zM120.471 64h843.415v45.176h-843.415zM323.765 455.529v-195.765h436.706v195.765h-436.706zM805.647 500.706v-286.118h-527.059v286.118h527.059zM391.529 335.059h316.597v45.176h-316.597z" />
</font>
</defs>
</svg>
